HIERARCHY
ROOT Hips
{
 OFFSET 0.000000 0.000000 0.000000
 CHANNELS 6 Xposition Yposition Zposition Yrotation Xrotation Zrotation
 JOINT Chest
 {
  OFFSET 0.000000 9.588913 -0.003946
  CHANNELS 3 Yrotation Xrotation Zrotation
  JOINT Chest2
  {
   OFFSET 0.000000 9.541882 0.008053
   CHANNELS 3 Yrotation Xrotation Zrotation
   JOINT Chest3
   {
    OFFSET 0.000000 9.501360 0.000000
    CHANNELS 3 Yrotation Xrotation Zrotation
    JOINT Chest4
    {
     OFFSET 0.000000 9.491660 0.000000
     CHANNELS 3 Yrotation Xrotation Zrotation
     JOINT Neck
     {
      OFFSET 0.000000 14.331917 0.000000
      CHANNELS 3 Yrotation Xrotation Zrotation
      JOINT Head
      {
       OFFSET 0.000000 8.884799 0.017034
       CHANNELS 3 Yrotation Xrotation Zrotation
       End Site
       {
        OFFSET 0.000000 16.896195 0.008993
       }
      }
     }
     JOINT RightCollar
     {
      OFFSET -2.923010 9.499495 0.000000
      CHANNELS 3 Yrotation Xrotation Zrotation
      JOINT RightShoulder
      {
       OFFSET -13.795216 0.000000 0.000000
       CHANNELS 3 Yrotation Xrotation Zrotation
       JOINT RightElbow
       {
        OFFSET -30.272209 0.000000 0.000000
        CHANNELS 3 Yrotation Xrotation Zrotation
        JOINT RightWrist
        {
         OFFSET -24.478199 0.000000 0.000000
         CHANNELS 3 Yrotation Xrotation Zrotation
         End Site
         {
          OFFSET -18.090752 0.000000 0.000000
         }
        }
       }
      }
     }
     JOINT LeftCollar
     {
      OFFSET 2.923010 9.499495 0.000000
      CHANNELS 3 Yrotation Xrotation Zrotation
      JOINT LeftShoulder
      {
       OFFSET 13.795216 0.000000 0.000000
       CHANNELS 3 Yrotation Xrotation Zrotation
       JOINT LeftElbow
       {
        OFFSET 30.272209 0.000000 0.000000
        CHANNELS 3 Yrotation Xrotation Zrotation
        JOINT LeftWrist
        {
         OFFSET 24.478199 0.000000 0.000000
         CHANNELS 3 Yrotation Xrotation Zrotation
         End Site
         {
          OFFSET 18.090752 0.000000 0.000000
         }
        }
       }
      }
     }
    }
   }
  }
 }
 JOINT RightHip
 {
  OFFSET -7.826875 0.019532 0.001973
  CHANNELS 3 Yrotation Xrotation Zrotation
  JOINT RightKnee
  {
   OFFSET 0.000000 -40.546152 -0.001885
   CHANNELS 3 Yrotation Xrotation Zrotation
   JOINT RightAnkle
   {
    OFFSET 0.000000 -39.417092 -0.003189
    CHANNELS 3 Yrotation Xrotation Zrotation
    JOINT RightToe
    {
     OFFSET 0.000000 -7.579396 17.243563
     CHANNELS 3 Yrotation Xrotation Zrotation
     End Site
     {
      OFFSET 0.000000 -1.500329 6.694466
     }
    }
   }
  }
 }
 JOINT LeftHip
 {
  OFFSET 7.826875 0.019532 0.001973
  CHANNELS 3 Yrotation Xrotation Zrotation
  JOINT LeftKnee
  {
   OFFSET 0.000000 -40.546152 -0.001885
   CHANNELS 3 Yrotation Xrotation Zrotation
   JOINT LeftAnkle
   {
    OFFSET 0.000000 -39.417092 -0.003189
    CHANNELS 3 Yrotation Xrotation Zrotation
    JOINT LeftToe
    {
     OFFSET 0.000000 -7.579396 17.243563
     CHANNELS 3 Yrotation Xrotation Zrotation
     End Site
     {
      OFFSET 0.000000 -1.500329 6.694466
     }
    }
   }
  }
 }
}
MOTION
Frames: 8
Frame Time: 0.008333
-154.557675 86.651424 146.790665 -50.403577 -13.198123 1.911836 1.087944 3.271788 0.597671 0.497333 2.050219 0.153981 0.622622 2.562558 0.195289 0.497325 2.050219 0.153980 -3.546214 29.539304 -0.429488 -3.838603 7.259294 0.324973 -8.093402 6.970343 -4.971214 -3.068337 4.654598 94.037911 -1.185884 5.272153 -0.618529 -3.704379 0.924426 2.761272 -6.975041 -0.358384 0.698026 1.865694 -11.123461 -78.494905 -12.487200 8.922856 -9.371285 3.638489 11.894561 -11.370370 -15.900220 -7.676262 -10.355371 -6.893141 6.017129 -4.353231 11.613768 1.556493 7.947276 -0.094977 -2.507816 0.295588 1.489865 22.781318 6.431372 -0.022503 18.987356 0.941165 8.248054 -12.770676 -11.246705 0.154291 -13.915411 -1.642806
-155.439690 86.550597 147.075946 -49.849105 -13.390095 1.929506 1.195427 3.213050 0.654894 0.499086 2.089069 0.150306 0.624811 2.611125 0.190758 0.499074 2.089069 0.150304 -3.525550 29.550318 -0.436847 -3.814044 7.272810 0.312105 -8.083466 6.798642 -4.924786 -3.015212 4.851664 93.990591 -1.186355 5.251876 -0.606562 -3.685420 0.915850 2.738688 -6.904899 -0.298464 0.684179 1.834551 -10.778336 -78.623002 -12.518194 9.217465 -9.488698 3.756216 11.994903 -11.333031 -15.596042 -7.266179 -10.650371 -6.227621 6.760190 -4.181162 10.817515 2.101507 7.939353 -0.105030 -2.952487 0.182193 1.510273 22.762943 6.849926 -0.404717 20.078848 0.938688 7.888776 -12.615552 -11.509082 0.187023 -15.055762 -1.766561
-156.337682 86.457127 147.364493 -49.277325 -13.679972 1.944934 1.275749 3.205669 0.690523 0.499498 2.144157 0.153428 0.625369 2.679980 0.194740 0.499481 2.144157 0.153425 -3.495859 29.555982 -0.444836 -3.779182 7.278804 0.296531 -8.047387 6.575106 -4.857433 -2.931831 5.082240 93.913968 -1.183446 5.195745 -0.592932 -3.656727 0.902837 2.722157 -6.797006 -0.247657 0.656795 1.828637 -10.422064 -78.742228 -12.500863 9.523390 -9.560602 3.851122 12.077318 -11.266080 -15.237499 -6.731883 -10.959147 -5.828514 7.501470 -4.019999 10.053279 2.605616 7.948301 -0.220421 -3.258102 0.047728 1.470730 22.767716 7.246351 -0.785606 21.283413 0.950820 7.549223 -12.373596 -11.767390 0.224700 -16.309814 -1.916777
-157.248766 86.373021 147.653266 -48.686116 -14.069134 1.932838 1.318047 3.264263 0.718426 0.502203 2.210100 0.167226 0.628868 2.762390 0.212099 0.502185 2.210102 0.167223 -3.468177 29.560208 -0.461832 -3.744499 7.282867 0.271420 -7.991698 6.323260 -4.771272 -2.823182 5.320107 93.805190 -1.186582 5.119327 -0.582920 -3.614186 0.878201 2.715911 -6.659905 -0.190453 0.616591 1.865178 -10.068205 -78.863188 -12.433036 9.836397 -9.577156 3.922153 12.149134 -11.173786 -14.890586 -6.089675 -11.249689 -5.708770 8.263089 -3.866167 9.385072 3.013030 7.951174 -0.373042 -3.416504 -0.098561 1.351244 22.782402 7.632234 -1.158552 22.626496 0.973034 7.243317 -12.039221 -12.015268 0.268416 -17.692111 -2.103846
-158.174399 86.301715 147.944123 -48.038641 -14.594073 1.863531 1.285251 3.433054 0.752951 0.508068 2.281709 0.195085 0.636414 2.851860 0.247067 0.508049 2.281712 0.195082 -3.451481 29.569426 -0.492313 -3.719100 7.293894 0.233795 -7.919556 6.089278 -4.675181 -2.690333 5.516004 93.663011 -1.205388 5.028685 -0.575269 -3.560618 0.844910 2.713123 -6.506643 -0.113547 0.565560 1.970539 -9.715396 -79.002594 -12.316574 10.159331 -9.534636 3.968166 12.213011 -11.056072 -14.654049 -5.312386 -11.509145 -5.798715 9.057276 -3.686296 8.809929 3.290005 7.807613 -0.445334 -3.456329 -0.158180 1.134040 22.824012 8.037948 -1.525717 24.133004 0.993839 6.949539 -11.601313 -12.236699 0.322535 -19.224392 -2.338745
-159.105071 86.242290 148.227920 -47.389591 -15.184241 1.726395 1.232212 3.652571 0.816891 0.516220 2.355478 0.237329 0.646925 2.944007 0.300042 0.516199 2.355482 0.237326 -3.442036 29.586057 -0.531996 -3.699820 7.314997 0.187553 -7.824458 5.906208 -4.579544 -2.522128 5.631199 93.490688 -1.245595 4.915261 -0.569222 -3.505403 0.816054 2.707300 -6.348985 -0.012888 0.506679 2.173000 -9.356044 -79.172395 -12.161504 10.499914 -9.437329 3.992543 12.264267 -10.911553 -14.462045 -4.461847 -11.683806 -5.976815 9.885121 -3.481577 8.251162 3.389324 7.458808 -0.406305 -3.383351 -0.086593 0.929876 22.796920 8.511206 -1.888433 25.830810 1.006004 6.636557 -11.049931 -12.425885 0.400171 -20.920977 -2.630753
-160.029891 86.193728 148.499721 -46.785836 -15.772144 1.541472 1.197403 3.877955 0.903872 0.528473 2.427441 0.292294 0.662664 3.033873 0.368950 0.528454 2.427447 0.292291 -3.432232 29.606131 -0.574806 -3.679482 7.340648 0.137741 -7.707961 5.769977 -4.492385 -2.307744 5.661062 93.296874 -1.306543 4.780967 -0.571840 -3.455901 0.792461 2.698874 -6.195372 0.107581 0.450255 2.480523 -8.983220 -79.381224 -11.968666 10.844068 -9.287154 4.003086 12.305836 -10.738396 -14.222019 -3.588610 -11.739792 -6.104253 10.700390 -3.278217 7.547738 3.341187 6.983828 -0.292094 -3.229167 0.061989 0.823973 22.617427 9.059634 -2.255725 27.726551 1.013198 6.269162 -10.362783 -12.569882 0.514637 -22.799629 -2.993380
-160.932608 86.151484 148.745911 -46.305208 -16.222235 1.331304 1.259588 4.007244 1.015959 0.545216 2.490684 0.356295 0.684093 3.112816 0.449181 0.545200 2.490691 0.356294 -3.422060 29.624883 -0.617954 -3.658636 7.364557 0.087473 -7.578254 5.661376 -4.419853 -2.052697 5.620207 93.095395 -1.383654 4.645421 -0.590959 -3.415014 0.772406 2.686169 -6.045427 0.243696 0.413056 2.874356 -8.593509 -79.635091 -11.730065 11.160819 -9.079684 4.003952 12.339895 -10.540556 -13.868147 -2.802701 -11.633215 -6.110683 11.434185 -3.104784 6.693510 3.121169 6.545158 -0.191091 -2.959658 0.176262 0.890324 22.142521 9.671824 -2.640943 29.818589 1.022115 5.859762 -9.531041 -12.656408 0.679251 -24.857923 -3.450638
